<svg id="Layer_1" enable-background="new 0 0 100 100" viewBox="0 0 100 100" xmlns="http://www.w3.org/2000/svg"><path d="m50 2.5c-26.1899738 0-47.5 21.3100262-47.5 47.5 0 12.1031799 4.5551577 23.6271133 12.8140965 32.4477768 8.9435539 9.5667267 21.582159 15.0522232 34.6859035 15.0522232s25.7423477-5.4854965 34.6859055-15.0522232c8.258934-8.8206635 12.8140945-20.3445969 12.8140945-32.4477768 0-26.1899738-21.3100281-47.5-47.5-47.5zm0 15.5700226c10.4356194 0 18.8964615 8.4608421 18.8964615 18.8964081 0 10.4356194-8.4608421 18.8964615-18.8964615 18.8964615s-18.8964615-8.4608422-18.8964615-18.8964615c0-10.435566 8.4608421-18.8964081 18.8964615-18.8964081zm-26.8833218 53.2049179c4.4849281-4.4761963 10.6726093-7.2496414 17.5097141-7.2496414h18.7472153c9.7861443 0 18.2557182 5.6785583 22.2755089 13.9287643-.263298.3071671-.5353775.6055984-.8074493.8952484-7.9517746 8.504715-19.1948471 13.3846131-30.8416672 13.3846131s-22.8898907-4.8798981-30.8416634-13.384613c-.2720795-.28965-.544157-.5880814-.8074512-.8952484 1.2112026-2.4925767 2.8261032-4.7394868 4.7657928-6.679123z"/></svg>